<svg width="68" height="68" viewBox="0 0 68 68" fill="none" xmlns="http://www.w3.org/2000/svg">
<path d="M0 8C0 3.58172 3.58172 0 8 0H60C64.4183 0 68 3.58172 68 8V60C68 64.4183 64.4183 68 60 68H8C3.58172 68 0 64.4183 0 60V8Z" fill="url(#paint0_linear_1079_114418)"/>
<path fill-rule="evenodd" clip-rule="evenodd" d="M50.9994 25.7473L51 25.7301V25.7129C51 25.204 50.7979 24.7015 50.3921 24.335C49.9887 23.9707 49.4527 23.7998 48.8736 23.7998C47.914 23.7998 46.9261 24.2787 46.6944 25.371L46.6902 25.391L46.6868 25.4112C46.5132 26.4527 46.0353 27.4957 45.2167 28.2717C44.4119 29.0346 43.2244 29.5914 41.5191 29.5914C39.1005 29.5914 37.255 28.5281 35.0107 27.1403L35.0069 27.138C31.8206 25.1892 29.5772 23.923 26.1516 23.923C23.6603 23.923 21.4019 24.5773 19.7403 25.7903C18.0621 27.0155 17 28.8142 17 30.9869C17 31.556 17.2489 32.0617 17.675 32.4048C18.0848 32.7348 18.6044 32.8754 19.1264 32.8754C19.9922 32.8754 21.1075 32.4286 21.2792 31.2722L21.2793 31.2722L21.2811 31.2589C21.4561 29.9511 21.9826 29.0072 22.7368 28.383C23.4978 27.7534 24.5755 27.3795 25.9686 27.3795C28.2066 27.3795 29.7247 28.273 31.7828 29.5354C35.4726 31.8238 37.648 33.0725 41.1532 33.0725C47.2067 33.0725 50.8662 29.3652 50.9994 25.7473ZM50.9994 36.8746L51 36.8574V36.8402C51 36.3313 50.7979 35.8288 50.3921 35.4622C49.9887 35.0979 49.4527 34.9271 48.8736 34.9271C47.914 34.9271 46.9261 35.4059 46.6944 36.4982L46.6902 36.5183L46.6868 36.5385C46.5132 37.5799 46.0353 38.623 45.2167 39.399C44.4119 40.1619 43.2244 40.7187 41.5191 40.7187C39.1005 40.7187 37.255 39.6553 35.0107 38.2676L35.0069 38.2652C31.8206 36.3165 29.5772 35.0503 26.1516 35.0503C23.6603 35.0503 21.4019 35.7046 19.7403 36.9176C18.0621 38.1428 17 39.9415 17 42.1142C17 42.6833 17.2489 43.189 17.675 43.5321C18.0848 43.8621 18.6044 44.0026 19.1264 44.0026C19.9922 44.0026 21.1075 43.5558 21.2792 42.3995L21.2793 42.3995L21.2811 42.3862C21.4561 41.0784 21.9826 40.1344 22.7368 39.5103C23.4978 38.8806 24.5755 38.5068 25.9686 38.5068C28.2066 38.5068 29.7247 39.4003 31.7827 40.6626C35.4726 42.9511 37.648 44.1998 41.1532 44.1998C47.2067 44.1998 50.8662 40.4925 50.9994 36.8746Z" fill="white"/>
<defs>
<linearGradient id="paint0_linear_1079_114418" x1="-18.3946" y1="-36.7892" x2="-18.3946" y2="68" gradientUnits="userSpaceOnUse">
<stop stop-color="#FFF35C"/>
<stop offset="1" stop-color="#EF7B32"/>
</linearGradient>
</defs>
</svg>
