<svg width="68" height="68" viewBox="0 0 68 68" fill="none" xmlns="http://www.w3.org/2000/svg">
<path d="M0 8C0 3.58172 3.58172 0 8 0H60C64.4183 0 68 3.58172 68 8V60C68 64.4183 64.4183 68 60 68H8C3.58172 68 0 64.4183 0 60V8Z" fill="url(#paint0_linear_1079_114357)"/>
<path d="M26.6538 24.5767C26.6538 20.3654 29.9697 17 34.0003 17C38.0309 17 41.3468 20.3654 41.3468 24.5767V33.1141C41.3468 37.3253 38.0309 40.6907 34.0003 40.6907C29.9697 40.6907 26.6538 37.3253 26.6538 33.1141V24.5767Z" fill="white"/>
<path d="M23.7869 33.114C23.7869 32.4881 23.3056 31.9807 22.7118 31.9807C22.1181 31.9807 21.6367 32.4881 21.6367 33.114C21.6367 39.7974 26.6215 45.2376 32.9253 45.7978V48.7333H27.7289C27.1352 48.7333 26.6538 49.2407 26.6538 49.8667C26.6538 50.4926 27.1352 51 27.7289 51H33.9962L34.0004 51L34.0045 51H40.2717C40.8655 51 41.3468 50.4926 41.3468 49.8667C41.3468 49.2407 40.8655 48.7333 40.2717 48.7333H35.0755V45.7978C41.3792 45.2376 46.364 39.7974 46.364 33.114C46.364 32.4881 45.8826 31.9807 45.2889 31.9807C44.6951 31.9807 44.2138 32.4881 44.2138 33.114C44.2138 38.8668 39.6679 43.5787 34.0004 43.5787C28.3329 43.5787 23.7869 38.8668 23.7869 33.114Z" fill="white"/>
<defs>
<linearGradient id="paint0_linear_1079_114357" x1="43.7143" y1="0.288136" x2="45.1309" y2="68.2991" gradientUnits="userSpaceOnUse">
<stop stop-color="#6EE8FF"/>
<stop offset="1" stop-color="#3885FF"/>
</linearGradient>
</defs>
</svg>
