<svg width="68" height="68" viewBox="0 0 68 68" fill="none" xmlns="http://www.w3.org/2000/svg">
<path d="M0 8C0 3.58172 3.58172 0 8 0H60C64.4183 0 68 3.58172 68 8V60C68 64.4183 64.4183 68 60 68H8C3.58172 68 0 64.4183 0 60V8Z" fill="url(#paint0_linear_1079_114419)"/>
<path d="M26.2207 42.8743H44.2853C44.3407 42.8743 44.3942 42.8655 44.4457 42.8517C44.4498 42.8517 44.4532 42.8525 44.4573 42.8525C44.843 42.8525 45.1562 42.5015 45.1562 42.0686V19.909C45.1563 19.4762 44.843 19.125 44.4573 19.125H44.2867H27.3385H26.2217C24.3614 19.125 22.8482 20.8229 22.8482 22.9092C22.8482 22.9371 22.8531 22.9637 22.8556 22.9907C22.8531 24.9179 22.8318 42.6267 22.8531 44.9547C22.8518 45.0002 22.8468 45.0447 22.8468 45.0906C22.8468 47.0967 24.2471 48.739 26.0084 48.8631C26.0437 48.8692 26.0784 48.875 26.115 48.875H44.4573C44.8429 48.875 45.1562 48.5239 45.1562 48.091V45.1397C45.1562 44.7071 44.8429 44.3557 44.4573 44.3557C44.0717 44.3557 43.7584 44.7071 43.7584 45.1397V47.307H26.2207C25.1587 47.307 24.2917 46.361 24.2491 45.1814C24.2501 45.1604 24.2535 45.1405 24.2532 45.1191C24.2525 45.0846 24.2514 45.031 24.2507 44.9598C24.3118 43.7989 25.1708 42.8743 26.2207 42.8743ZM26.6973 22.9092C26.6973 22.4764 27.0104 22.1251 27.3962 22.1251C27.782 22.1251 28.0951 22.4764 28.0951 22.9092V38.8351C28.0951 39.2677 27.782 39.6191 27.3962 39.6191C27.0104 39.6191 26.6973 39.2676 26.6973 38.8351V22.9092Z" fill="white"/>
<defs>
<linearGradient id="paint0_linear_1079_114419" x1="-21.1381" y1="-13.4546" x2="-21.1381" y2="100.307" gradientUnits="userSpaceOnUse">
<stop stop-color="#FF52E3"/>
<stop offset="1" stop-color="#2980FF"/>
</linearGradient>
</defs>
</svg>
