<svg width="68" height="68" viewBox="0 0 68 68" fill="none" xmlns="http://www.w3.org/2000/svg">
<g opacity="0.967308">
<path d="M0 8C0 3.58172 3.58172 0 8 0H60C64.4183 0 68 3.58172 68 8V60C68 64.4183 64.4183 68 60 68H8C3.58172 68 0 64.4183 0 60V8Z" fill="url(#paint0_linear_1079_114420)"/>
<path fill-rule="evenodd" clip-rule="evenodd" d="M53.3309 34.9697H49.8222C49.4319 34.9697 48.9937 34.4122 48.9937 33.6679V23.9655C48.9937 20.1252 46.2334 17 42.8382 17C39.443 17 36.6811 20.1252 36.6811 23.9655V36.9231V44.0333C36.6811 45.6959 35.6208 47.1 34.3654 47.1C33.1084 47.1 32.0465 45.6959 32.0465 44.0333V36.9231V33.6679C32.0465 29.826 29.2846 26.7007 25.891 26.7007C22.4958 26.7007 19.7339 29.826 19.7339 33.6679C19.7339 34.4155 19.2973 34.9729 18.9071 34.9729H14.6707C13.6104 34.9729 12.75 35.8456 12.75 36.9231C12.75 38.0006 13.6104 38.8734 14.6707 38.8734H18.9071C21.4787 38.8734 23.5737 36.538 23.5737 33.6679C23.5737 32.007 24.634 30.6012 25.891 30.6012C27.1464 30.6012 28.2083 32.007 28.2083 33.6679V36.9231V44.0333C28.2083 47.8753 30.9702 51.0005 34.3654 51.0005C37.759 51.0005 40.5209 47.8753 40.5209 44.0333V36.9231V23.9655C40.5209 22.3046 41.5812 20.9021 42.8382 20.9021C44.0952 20.9021 45.1556 22.3046 45.1556 23.9655V33.6679C45.1556 36.5363 47.249 38.8701 49.8222 38.8701H53.3309C54.3912 38.8701 55.25 37.9974 55.25 36.9199C55.25 35.8424 54.3912 34.9697 53.3309 34.9697Z" fill="white"/>
</g>
<defs>
<linearGradient id="paint0_linear_1079_114420" x1="43.1523" y1="0" x2="43.1523" y2="117.807" gradientUnits="userSpaceOnUse">
<stop stop-color="#FFB339"/>
<stop offset="1" stop-color="#FF128E"/>
</linearGradient>
</defs>
</svg>
